<svg width="366" height="443" viewBox="0 0 366 443" fill="none" xmlns="http://www.w3.org/2000/svg">
<path d="M345 0.5C356.322 0.5 365.5 9.67816 365.5 21V321C365.5 332.322 356.322 341.5 345 341.5H21C9.67816 341.5 0.5 332.322 0.5 321V21C0.5 9.67816 9.67816 0.5 21 0.5H345Z" fill="white" stroke="white" stroke-linejoin="bevel"/>
<path d="M59.0367 107.5H307.146C313.854 107.5 319.259 112.998 319.144 119.705L318.44 160.789C318.328 167.335 312.989 172.583 306.442 172.583H217.091V429.895C217.091 436.474 211.794 441.826 205.216 441.895L159.43 442.373C152.759 442.443 147.312 437.058 147.305 430.387L147.032 172.583H59.162C52.5489 172.583 47.1822 167.233 47.162 160.62L47.0367 119.536C47.0165 112.895 52.3949 107.5 59.0367 107.5Z" fill="#358CFF"/>
</svg>
